<svg width="238" height="44" viewBox="0 0 238 44" fill="none" xmlns="http://www.w3.org/2000/svg">
<path d="M108.7 19.16C107.487 19.16 106.447 18.8533 105.58 18.24C104.713 17.6267 104.153 16.7333 103.9 15.56H105.86C106.087 16.16 106.44 16.6133 106.92 16.92C107.4 17.2133 107.993 17.36 108.7 17.36C109.58 17.36 110.273 17.1 110.78 16.58C111.287 16.06 111.54 15.3267 111.54 14.38C111.54 13.4467 111.287 12.72 110.78 12.2C110.273 11.68 109.58 11.42 108.7 11.42C108.1 11.42 107.58 11.54 107.14 11.78C106.713 12.02 106.387 12.3133 106.16 12.66H104.3L104.9 5H112.6V6.72H106.62L106.32 10.54C107.04 9.92667 107.947 9.62 109.04 9.62C109.68 9.62 110.273 9.73333 110.82 9.96C111.367 10.1867 111.84 10.5133 112.24 10.94C112.64 11.3533 112.947 11.8533 113.16 12.44C113.387 13.0133 113.5 13.66 113.5 14.38C113.5 15.1 113.387 15.76 113.16 16.36C112.933 16.9467 112.607 17.4467 112.18 17.86C111.767 18.2733 111.267 18.5933 110.68 18.82C110.093 19.0467 109.433 19.16 108.7 19.16ZM128.609 6.72H121.609V5H130.609V6.72L125.549 19H123.509L128.609 6.72ZM132.718 17.28L137.498 12.66C138.351 11.82 138.971 11.1333 139.358 10.6C139.758 10.0533 139.958 9.52667 139.958 9.02C139.958 8.31333 139.718 7.74 139.238 7.3C138.758 6.86 138.118 6.64 137.318 6.64C136.518 6.64 135.878 6.86667 135.398 7.32C134.918 7.76 134.678 8.35333 134.678 9.1H132.718C132.718 8.47333 132.825 7.9 133.038 7.38C133.265 6.86 133.578 6.41333 133.978 6.04C134.378 5.65333 134.858 5.36 135.418 5.16C135.991 4.94667 136.625 4.84 137.318 4.84C138.011 4.84 138.638 4.94667 139.198 5.16C139.771 5.36 140.258 5.64667 140.658 6.02C141.058 6.39333 141.365 6.84 141.578 7.36C141.805 7.86667 141.918 8.42 141.918 9.02C141.918 9.76667 141.658 10.52 141.138 11.28C140.618 12.04 139.865 12.88 138.878 13.8L135.198 17.28H141.918V19H132.718V17.28ZM149.614 19.16C149.054 19.16 148.547 19.08 148.094 18.92C147.641 18.76 147.241 18.5333 146.894 18.24C146.547 17.9467 146.261 17.6 146.034 17.2C145.807 16.8 145.634 16.3667 145.514 15.9H147.494C147.641 16.3 147.881 16.6467 148.214 16.94C148.547 17.22 149.014 17.36 149.614 17.36C150.041 17.36 150.434 17.2933 150.794 17.16C151.154 17.0133 151.461 16.7733 151.714 16.44C151.981 16.0933 152.187 15.64 152.334 15.08C152.494 14.52 152.594 13.82 152.634 12.98C152.274 13.42 151.834 13.76 151.314 14C150.807 14.24 150.241 14.36 149.614 14.36C148.201 14.36 147.094 13.96 146.294 13.16C145.507 12.36 145.114 11.2333 145.114 9.78V9.42C145.114 8.72667 145.227 8.1 145.454 7.54C145.694 6.96667 146.021 6.48 146.434 6.08C146.847 5.68 147.334 5.37333 147.894 5.16C148.454 4.94667 149.061 4.84 149.714 4.84C150.434 4.84 151.087 4.95333 151.674 5.18C152.261 5.40667 152.761 5.76 153.174 6.24C153.601 6.72 153.927 7.34 154.154 8.1C154.394 8.84667 154.514 9.75333 154.514 10.82V11.98C154.514 13.2867 154.394 14.4 154.154 15.32C153.914 16.2267 153.581 16.9667 153.154 17.54C152.727 18.1 152.214 18.5133 151.614 18.78C151.014 19.0333 150.347 19.16 149.614 19.16ZM147.074 9.78C147.074 10.66 147.314 11.3467 147.794 11.84C148.274 12.32 148.921 12.56 149.734 12.56C150.614 12.56 151.301 12.32 151.794 11.84C152.301 11.36 152.554 10.7067 152.554 9.88V9.52C152.554 8.57333 152.287 7.86 151.754 7.38C151.221 6.88667 150.541 6.64 149.714 6.64C148.901 6.64 148.254 6.88667 147.774 7.38C147.307 7.87333 147.074 8.55333 147.074 9.42V9.78ZM168.709 19.16C167.922 19.16 167.229 19.06 166.629 18.86C166.042 18.66 165.542 18.3867 165.129 18.04C164.729 17.68 164.422 17.2533 164.209 16.76C164.009 16.2667 163.909 15.7267 163.909 15.14C163.909 14.3267 164.115 13.6333 164.529 13.06C164.955 12.4867 165.515 12.0333 166.209 11.7C165.622 11.3933 165.155 10.9867 164.809 10.48C164.475 9.97333 164.309 9.35333 164.309 8.62C164.309 8.08667 164.415 7.59333 164.629 7.14C164.842 6.67333 165.135 6.27333 165.509 5.94C165.895 5.59333 166.355 5.32667 166.889 5.14C167.435 4.94 168.042 4.84 168.709 4.84C169.389 4.84 169.995 4.93333 170.529 5.12C171.075 5.30667 171.535 5.56667 171.909 5.9C172.295 6.23333 172.589 6.63333 172.789 7.1C173.002 7.56667 173.109 8.07333 173.109 8.62C173.109 9.34 172.929 9.95333 172.569 10.46C172.222 10.9667 171.755 11.3733 171.169 11.68C171.875 12.0133 172.442 12.4733 172.869 13.06C173.295 13.6333 173.509 14.3267 173.509 15.14C173.509 15.7133 173.402 16.2467 173.189 16.74C172.975 17.22 172.662 17.64 172.249 18C171.849 18.36 171.349 18.6467 170.749 18.86C170.149 19.06 169.469 19.16 168.709 19.16ZM168.709 10.94C169.002 10.9 169.295 10.8333 169.589 10.74C169.882 10.6333 170.142 10.4933 170.369 10.32C170.609 10.1333 170.795 9.90667 170.929 9.64C171.075 9.36 171.149 9.02667 171.149 8.64C171.149 8.38667 171.095 8.14 170.989 7.9C170.882 7.66 170.722 7.44667 170.509 7.26C170.309 7.07333 170.055 6.92667 169.749 6.82C169.442 6.7 169.095 6.64 168.709 6.64C168.322 6.64 167.975 6.7 167.669 6.82C167.362 6.92667 167.102 7.07333 166.889 7.26C166.689 7.44667 166.535 7.66 166.429 7.9C166.322 8.14 166.269 8.38667 166.269 8.64C166.269 9.01333 166.342 9.33333 166.489 9.6C166.649 9.86667 166.842 10.0933 167.069 10.28C167.309 10.4667 167.569 10.6133 167.849 10.72C168.142 10.8267 168.429 10.9 168.709 10.94ZM168.709 17.36C169.162 17.36 169.562 17.3 169.909 17.18C170.269 17.06 170.569 16.9 170.809 16.7C171.049 16.4867 171.229 16.2467 171.349 15.98C171.482 15.7 171.549 15.4133 171.549 15.12C171.549 14.72 171.469 14.3667 171.309 14.06C171.149 13.7533 170.935 13.4933 170.669 13.28C170.415 13.0533 170.115 12.8733 169.769 12.74C169.435 12.6067 169.082 12.52 168.709 12.48C168.322 12.52 167.955 12.6067 167.609 12.74C167.262 12.86 166.955 13.0333 166.689 13.26C166.435 13.4733 166.235 13.7333 166.089 14.04C165.942 14.3467 165.869 14.7067 165.869 15.12C165.869 15.4267 165.929 15.7133 166.049 15.98C166.182 16.2467 166.369 16.4867 166.609 16.7C166.849 16.9 167.142 17.06 167.489 17.18C167.849 17.3 168.255 17.36 168.709 17.36ZM181.705 19.16C180.985 19.16 180.325 19.0467 179.725 18.82C179.139 18.5933 178.632 18.24 178.205 17.76C177.792 17.28 177.472 16.6667 177.245 15.92C177.019 15.16 176.905 14.2467 176.905 13.18V12.02C176.905 10.7133 177.019 9.60667 177.245 8.7C177.485 7.78 177.819 7.04 178.245 6.48C178.685 5.90667 179.205 5.49333 179.805 5.24C180.405 4.97333 181.072 4.84 181.805 4.84C182.365 4.84 182.872 4.92667 183.325 5.1C183.779 5.26 184.179 5.48667 184.525 5.78C184.872 6.06 185.159 6.4 185.385 6.8C185.612 7.2 185.785 7.63333 185.905 8.1H183.925C183.779 7.7 183.539 7.36 183.205 7.08C182.872 6.78667 182.405 6.64 181.805 6.64C181.379 6.64 180.985 6.71333 180.625 6.86C180.265 6.99333 179.952 7.23333 179.685 7.58C179.432 7.91333 179.225 8.36 179.065 8.92C178.919 9.48 178.825 10.18 178.785 11.02C179.145 10.58 179.579 10.24 180.085 10C180.605 9.76 181.179 9.64 181.805 9.64C183.219 9.64 184.319 10.04 185.105 10.84C185.905 11.64 186.305 12.7667 186.305 14.22V14.58C186.305 15.2733 186.185 15.9067 185.945 16.48C185.719 17.04 185.399 17.52 184.985 17.92C184.572 18.32 184.085 18.6267 183.525 18.84C182.965 19.0533 182.359 19.16 181.705 19.16ZM178.865 14.48C178.865 15.4267 179.132 16.1467 179.665 16.64C180.199 17.12 180.879 17.36 181.705 17.36C182.519 17.36 183.159 17.1133 183.625 16.62C184.105 16.1267 184.345 15.4467 184.345 14.58V14.22C184.345 13.34 184.105 12.66 183.625 12.18C183.145 11.6867 182.499 11.44 181.685 11.44C180.805 11.44 180.112 11.68 179.605 12.16C179.112 12.64 178.865 13.2933 178.865 14.12V14.48ZM194.6 19.16C193.867 19.16 193.2 19.04 192.6 18.8C192.013 18.56 191.513 18.18 191.1 17.66C190.687 17.1267 190.367 16.4467 190.14 15.62C189.913 14.78 189.8 13.7667 189.8 12.58V11.42C189.8 10.2467 189.913 9.24667 190.14 8.42C190.367 7.58 190.687 6.9 191.1 6.38C191.527 5.84667 192.033 5.46 192.62 5.22C193.22 4.96667 193.88 4.84 194.6 4.84C195.333 4.84 195.993 4.96 196.58 5.2C197.18 5.44 197.687 5.82667 198.1 6.36C198.513 6.88 198.833 7.56 199.06 8.4C199.287 9.22667 199.4 10.2333 199.4 11.42V12.58C199.4 13.7533 199.287 14.76 199.06 15.6C198.833 16.4267 198.507 17.1067 198.08 17.64C197.667 18.16 197.16 18.5467 196.56 18.8C195.973 19.04 195.32 19.16 194.6 19.16ZM194.6 17.36C195.04 17.36 195.433 17.2867 195.78 17.14C196.14 16.98 196.44 16.72 196.68 16.36C196.92 15.9867 197.107 15.4933 197.24 14.88C197.373 14.2667 197.44 13.5 197.44 12.58V11.42C197.44 10.5 197.373 9.74 197.24 9.14C197.107 8.52667 196.913 8.03333 196.66 7.66C196.42 7.28667 196.12 7.02667 195.76 6.88C195.413 6.72 195.027 6.64 194.6 6.64C194.16 6.64 193.76 6.72 193.4 6.88C193.053 7.02667 192.76 7.28667 192.52 7.66C192.28 8.02 192.093 8.50667 191.96 9.12C191.827 9.73333 191.76 10.5 191.76 11.42V12.58C191.76 13.5 191.827 14.2667 191.96 14.88C192.093 15.48 192.28 15.9667 192.52 16.34C192.773 16.7133 193.073 16.98 193.42 17.14C193.78 17.2867 194.173 17.36 194.6 17.36ZM209.207 9H210.607L210.807 10.4H210.847C211.314 9.84 211.8 9.44 212.307 9.2C212.827 8.96 213.447 8.84 214.167 8.84C214.767 8.84 215.314 8.94667 215.807 9.16C216.3 9.36 216.727 9.66667 217.087 10.08C217.447 10.48 217.72 10.9867 217.907 11.6C218.107 12.2 218.207 12.9067 218.207 13.72V14.28C218.207 15.08 218.107 15.7867 217.907 16.4C217.707 17 217.427 17.5067 217.067 17.92C216.707 18.3333 216.28 18.6467 215.787 18.86C215.294 19.06 214.754 19.16 214.167 19.16C213.487 19.16 212.9 19.0533 212.407 18.84C211.927 18.6267 211.474 18.28 211.047 17.8H211.007V23H209.207V9ZM213.667 17.52C214.48 17.52 215.127 17.26 215.607 16.74C216.087 16.2067 216.327 15.3867 216.327 14.28V13.72C216.327 12.64 216.08 11.8333 215.587 11.3C215.107 10.7533 214.467 10.48 213.667 10.48C212.854 10.48 212.207 10.7467 211.727 11.28C211.247 11.8 211.007 12.6133 211.007 13.72V14.28C211.007 15.36 211.247 16.1733 211.727 16.72C212.22 17.2533 212.867 17.52 213.667 17.52ZM222.723 19.16C222.323 19.16 221.996 19.0333 221.743 18.78C221.503 18.5267 221.383 18.2067 221.383 17.82C221.383 17.4333 221.503 17.1133 221.743 16.86C221.996 16.6067 222.323 16.48 222.723 16.48C223.123 16.48 223.443 16.6067 223.683 16.86C223.936 17.1133 224.063 17.4333 224.063 17.82C224.063 18.2067 223.936 18.5267 223.683 18.78C223.443 19.0333 223.123 19.16 222.723 19.16Z" fill="#23192D"/>
<path opacity="0.4" d="M141.8 34.088L140.12 35.204V33.728L141.8 32.6H143.24V41H141.8V34.088ZM146.595 34.088L144.915 35.204V33.728L146.595 32.6H148.035V41H146.595V34.088ZM153.011 41.12C152.651 41.12 152.323 41.068 152.027 40.964C151.739 40.86 151.487 40.716 151.271 40.532C151.055 40.34 150.875 40.116 150.731 39.86C150.587 39.604 150.487 39.324 150.431 39.02H151.907C151.995 39.228 152.131 39.408 152.315 39.56C152.499 39.704 152.751 39.776 153.071 39.776C153.303 39.776 153.515 39.736 153.707 39.656C153.899 39.576 154.063 39.448 154.199 39.272C154.343 39.096 154.455 38.864 154.535 38.576C154.615 38.288 154.663 37.932 154.679 37.508C154.223 37.988 153.647 38.228 152.951 38.228C152.087 38.228 151.411 37.984 150.923 37.496C150.435 37 150.191 36.312 150.191 35.432V35.288C150.191 34.872 150.259 34.492 150.395 34.148C150.531 33.804 150.723 33.508 150.971 33.26C151.227 33.012 151.531 32.82 151.883 32.684C152.243 32.548 152.639 32.48 153.071 32.48C153.527 32.48 153.939 32.556 154.307 32.708C154.675 32.852 154.991 33.076 155.255 33.38C155.519 33.676 155.719 34.056 155.855 34.52C155.999 34.976 156.071 35.512 156.071 36.128V36.752C156.071 37.544 155.999 38.22 155.855 38.78C155.711 39.332 155.503 39.784 155.231 40.136C154.967 40.48 154.647 40.732 154.271 40.892C153.895 41.044 153.475 41.12 153.011 41.12ZM151.703 35.432C151.703 35.888 151.827 36.244 152.075 36.5C152.331 36.756 152.663 36.884 153.071 36.884C153.543 36.884 153.907 36.756 154.163 36.5C154.427 36.244 154.559 35.888 154.559 35.432V35.288C154.559 34.832 154.427 34.476 154.163 34.22C153.907 33.956 153.543 33.824 153.071 33.824C152.663 33.824 152.331 33.956 152.075 34.22C151.827 34.476 151.703 34.832 151.703 35.288V35.432ZM164.587 41.12C164.123 41.12 163.703 41.048 163.327 40.904C162.959 40.752 162.647 40.516 162.391 40.196C162.135 39.876 161.935 39.464 161.791 38.96C161.655 38.448 161.587 37.832 161.587 37.112V36.488C161.587 35.776 161.655 35.168 161.791 34.664C161.935 34.152 162.135 33.736 162.391 33.416C162.655 33.088 162.971 32.852 163.339 32.708C163.707 32.556 164.123 32.48 164.587 32.48C165.051 32.48 165.467 32.556 165.835 32.708C166.211 32.852 166.527 33.084 166.783 33.404C167.047 33.724 167.247 34.14 167.383 34.652C167.519 35.156 167.587 35.768 167.587 36.488V37.112C167.587 37.824 167.515 38.436 167.371 38.948C167.235 39.452 167.035 39.868 166.771 40.196C166.515 40.516 166.203 40.752 165.835 40.904C165.467 41.048 165.051 41.12 164.587 41.12ZM164.587 39.776C164.819 39.776 165.027 39.736 165.211 39.656C165.395 39.576 165.551 39.436 165.679 39.236C165.807 39.036 165.903 38.764 165.967 38.42C166.039 38.076 166.075 37.64 166.075 37.112V36.488C166.075 35.968 166.039 35.536 165.967 35.192C165.895 34.848 165.795 34.576 165.667 34.376C165.539 34.168 165.383 34.024 165.199 33.944C165.015 33.864 164.811 33.824 164.587 33.824C164.355 33.824 164.147 33.864 163.963 33.944C163.779 34.024 163.623 34.164 163.495 34.364C163.367 34.564 163.267 34.836 163.195 35.18C163.131 35.524 163.099 35.96 163.099 36.488V37.112C163.099 37.632 163.131 38.064 163.195 38.408C163.267 38.752 163.367 39.028 163.495 39.236C163.631 39.436 163.787 39.576 163.963 39.656C164.147 39.736 164.355 39.776 164.587 39.776ZM172.512 41.12C172.048 41.12 171.628 41.048 171.252 40.904C170.884 40.752 170.572 40.516 170.316 40.196C170.06 39.876 169.86 39.464 169.716 38.96C169.58 38.448 169.512 37.832 169.512 37.112V36.488C169.512 35.776 169.58 35.168 169.716 34.664C169.86 34.152 170.06 33.736 170.316 33.416C170.58 33.088 170.896 32.852 171.264 32.708C171.632 32.556 172.048 32.48 172.512 32.48C172.976 32.48 173.392 32.556 173.76 32.708C174.136 32.852 174.452 33.084 174.708 33.404C174.972 33.724 175.172 34.14 175.308 34.652C175.444 35.156 175.512 35.768 175.512 36.488V37.112C175.512 37.824 175.44 38.436 175.296 38.948C175.16 39.452 174.96 39.868 174.696 40.196C174.44 40.516 174.128 40.752 173.76 40.904C173.392 41.048 172.976 41.12 172.512 41.12ZM172.512 39.776C172.744 39.776 172.952 39.736 173.136 39.656C173.32 39.576 173.476 39.436 173.604 39.236C173.732 39.036 173.828 38.764 173.892 38.42C173.964 38.076 174 37.64 174 37.112V36.488C174 35.968 173.964 35.536 173.892 35.192C173.82 34.848 173.72 34.576 173.592 34.376C173.464 34.168 173.308 34.024 173.124 33.944C172.94 33.864 172.736 33.824 172.512 33.824C172.28 33.824 172.072 33.864 171.888 33.944C171.704 34.024 171.548 34.164 171.42 34.364C171.292 34.564 171.192 34.836 171.12 35.18C171.056 35.524 171.024 35.96 171.024 36.488V37.112C171.024 37.632 171.056 38.064 171.12 38.408C171.192 38.752 171.292 39.028 171.42 39.236C171.556 39.436 171.712 39.576 171.888 39.656C172.072 39.736 172.28 39.776 172.512 39.776ZM180.436 41.12C179.972 41.12 179.552 41.048 179.176 40.904C178.808 40.752 178.496 40.516 178.24 40.196C177.984 39.876 177.784 39.464 177.64 38.96C177.504 38.448 177.436 37.832 177.436 37.112V36.488C177.436 35.776 177.504 35.168 177.64 34.664C177.784 34.152 177.984 33.736 178.24 33.416C178.504 33.088 178.82 32.852 179.188 32.708C179.556 32.556 179.972 32.48 180.436 32.48C180.9 32.48 181.316 32.556 181.684 32.708C182.06 32.852 182.376 33.084 182.632 33.404C182.896 33.724 183.096 34.14 183.232 34.652C183.368 35.156 183.436 35.768 183.436 36.488V37.112C183.436 37.824 183.364 38.436 183.22 38.948C183.084 39.452 182.884 39.868 182.62 40.196C182.364 40.516 182.052 40.752 181.684 40.904C181.316 41.048 180.9 41.12 180.436 41.12ZM180.436 39.776C180.668 39.776 180.876 39.736 181.06 39.656C181.244 39.576 181.4 39.436 181.528 39.236C181.656 39.036 181.752 38.764 181.816 38.42C181.888 38.076 181.924 37.64 181.924 37.112V36.488C181.924 35.968 181.888 35.536 181.816 35.192C181.744 34.848 181.644 34.576 181.516 34.376C181.388 34.168 181.232 34.024 181.048 33.944C180.864 33.864 180.66 33.824 180.436 33.824C180.204 33.824 179.996 33.864 179.812 33.944C179.628 34.024 179.472 34.164 179.344 34.364C179.216 34.564 179.116 34.836 179.044 35.18C178.98 35.524 178.948 35.96 178.948 36.488V37.112C178.948 37.632 178.98 38.064 179.044 38.408C179.116 38.752 179.216 39.028 179.344 39.236C179.48 39.436 179.636 39.576 179.812 39.656C179.996 39.736 180.204 39.776 180.436 39.776ZM189.08 35H190.16L190.28 35.72H190.304C190.792 35.16 191.432 34.88 192.224 34.88C192.6 34.88 192.94 34.944 193.244 35.072C193.556 35.192 193.82 35.376 194.036 35.624C194.252 35.872 194.42 36.184 194.54 36.56C194.66 36.928 194.72 37.364 194.72 37.868V38.132C194.72 39.124 194.488 39.872 194.024 40.376C193.568 40.872 192.968 41.12 192.224 41.12C191.88 41.12 191.552 41.056 191.24 40.928C190.936 40.8 190.688 40.624 190.496 40.4H190.472V43.4H189.08V35ZM191.864 39.848C192.296 39.848 192.636 39.712 192.884 39.44C193.132 39.168 193.256 38.732 193.256 38.132V37.868C193.256 37.284 193.128 36.852 192.872 36.572C192.624 36.292 192.288 36.152 191.864 36.152C191.432 36.152 191.092 36.292 190.844 36.572C190.596 36.844 190.472 37.28 190.472 37.88V38.144C190.472 38.72 190.596 39.148 190.844 39.428C191.1 39.708 191.44 39.848 191.864 39.848ZM197.309 41.12C197.029 41.12 196.797 41.028 196.613 40.844C196.437 40.66 196.349 40.432 196.349 40.16C196.349 39.888 196.437 39.66 196.613 39.476C196.797 39.292 197.029 39.2 197.309 39.2C197.589 39.2 197.817 39.292 197.993 39.476C198.177 39.66 198.269 39.888 198.269 40.16C198.269 40.432 198.177 40.66 197.993 40.844C197.817 41.028 197.589 41.12 197.309 41.12ZM207.351 32.6H208.647L204.663 43.4H203.367L207.351 32.6ZM213.689 35H215.753L217.025 38.264H217.049L218.321 35H220.289V41H218.897V36.62H218.873L217.685 39.68H216.293L215.105 36.62H215.081V41H213.689V35ZM221.858 35.456L223.538 33.92C223.738 33.744 223.898 33.592 224.018 33.464C224.138 33.328 224.23 33.212 224.294 33.116C224.366 33.012 224.41 32.92 224.426 32.84C224.45 32.752 224.462 32.664 224.462 32.576C224.462 32.376 224.402 32.22 224.282 32.108C224.162 31.996 223.982 31.94 223.742 31.94C223.494 31.94 223.31 31.996 223.19 32.108C223.078 32.22 223.022 32.38 223.022 32.588H221.858C221.858 32.108 222.022 31.712 222.35 31.4C222.678 31.088 223.142 30.932 223.742 30.932C224.334 30.932 224.794 31.088 225.122 31.4C225.458 31.704 225.626 32.096 225.626 32.576C225.626 32.936 225.514 33.272 225.29 33.584C225.066 33.896 224.714 34.26 224.234 34.676L223.358 35.456H225.626V36.44H221.858V35.456Z" fill="#23192D"/>
</svg>
