<svg width="238" height="14" viewBox="0 0 238 14" fill="none" xmlns="http://www.w3.org/2000/svg">
<path d="M13.8 4.088L12.12 5.204V3.728L13.8 2.6H15.24V11H13.8V4.088ZM21.1753 5H22.5673V7.244H23.1673L24.6553 5H26.2153L24.2833 7.808L26.4553 11H24.7993L23.1673 8.516H22.5673V11H21.1753V5ZM30.2367 11.12C29.3327 11.12 28.6247 10.864 28.1127 10.352C27.6087 9.832 27.3567 9.092 27.3567 8.132V7.868C27.3567 7.396 27.4207 6.976 27.5487 6.608C27.6847 6.24 27.8767 5.928 28.1247 5.672C28.3807 5.416 28.6847 5.22 29.0367 5.084C29.3887 4.948 29.7887 4.88 30.2367 4.88C31.1407 4.88 31.8447 5.14 32.3487 5.66C32.8607 6.172 33.1167 6.908 33.1167 7.868V8.132C33.1167 8.604 33.0487 9.024 32.9127 9.392C32.7847 9.76 32.5927 10.072 32.3367 10.328C32.0887 10.584 31.7847 10.78 31.4247 10.916C31.0727 11.052 30.6767 11.12 30.2367 11.12ZM30.2367 9.848C30.6767 9.848 31.0207 9.712 31.2687 9.44C31.5247 9.16 31.6527 8.724 31.6527 8.132V7.868C31.6527 7.292 31.5247 6.864 31.2687 6.584C31.0127 6.296 30.6687 6.152 30.2367 6.152C29.7967 6.152 29.4487 6.292 29.1927 6.572C28.9447 6.844 28.8207 7.276 28.8207 7.868V8.132C28.8207 8.708 28.9487 9.14 29.2047 9.428C29.4607 9.708 29.8047 9.848 30.2367 9.848ZM34.9144 5H36.9784L38.2504 8.264H38.2744L39.5464 5H41.5144V11H40.1224V6.62H40.0984L38.9104 9.68H37.5184L36.3304 6.62H36.3064V11H34.9144V5ZM43.6706 5H45.0626V7.304H47.6786V5H49.0706V11H47.6786V8.576H45.0626V11H43.6706V5ZM52.9116 11.12C52.1996 11.12 51.6716 10.96 51.3276 10.64C50.9836 10.32 50.8116 9.876 50.8116 9.308C50.8116 9.012 50.8596 8.744 50.9556 8.504C51.0516 8.264 51.2076 8.06 51.4236 7.892C51.6396 7.724 51.9196 7.596 52.2636 7.508C52.6076 7.412 53.0236 7.364 53.5116 7.364H54.6996V7.04C54.6996 6.728 54.6076 6.488 54.4236 6.32C54.2396 6.144 53.9556 6.056 53.5716 6.056C53.1876 6.056 52.9116 6.128 52.7436 6.272C52.5756 6.408 52.4756 6.584 52.4436 6.8H51.0516C51.0676 6.528 51.1316 6.276 51.2436 6.044C51.3556 5.804 51.5156 5.6 51.7236 5.432C51.9316 5.256 52.1876 5.12 52.4916 5.024C52.8036 4.928 53.1636 4.88 53.5716 4.88C54.4276 4.88 55.0596 5.076 55.4676 5.468C55.8836 5.86 56.0916 6.424 56.0916 7.16V11H55.0116L54.8796 10.22H54.8556C54.6236 10.508 54.3396 10.732 54.0036 10.892C53.6676 11.044 53.3036 11.12 52.9116 11.12ZM53.1516 9.944C53.3756 9.944 53.5796 9.908 53.7636 9.836C53.9556 9.764 54.1196 9.668 54.2556 9.548C54.3916 9.42 54.4996 9.272 54.5796 9.104C54.6596 8.928 54.6996 8.74 54.6996 8.54V8.396H53.5716C53.0916 8.396 52.7556 8.476 52.5636 8.636C52.3716 8.788 52.2756 8.996 52.2756 9.26C52.2756 9.46 52.3436 9.624 52.4796 9.752C52.6236 9.88 52.8476 9.944 53.1516 9.944ZM59.1245 6.272H57.3005V5H62.3405V6.272H60.5165V11H59.1245V6.272ZM65.4084 11.12C64.6964 11.12 64.1684 10.96 63.8244 10.64C63.4804 10.32 63.3084 9.876 63.3084 9.308C63.3084 9.012 63.3564 8.744 63.4524 8.504C63.5484 8.264 63.7044 8.06 63.9204 7.892C64.1364 7.724 64.4164 7.596 64.7604 7.508C65.1044 7.412 65.5204 7.364 66.0084 7.364H67.1964V7.04C67.1964 6.728 67.1044 6.488 66.9204 6.32C66.7364 6.144 66.4524 6.056 66.0684 6.056C65.6844 6.056 65.4084 6.128 65.2404 6.272C65.0724 6.408 64.9724 6.584 64.9404 6.8H63.5484C63.5644 6.528 63.6284 6.276 63.7404 6.044C63.8524 5.804 64.0124 5.6 64.2204 5.432C64.4284 5.256 64.6844 5.12 64.9884 5.024C65.3004 4.928 65.6604 4.88 66.0684 4.88C66.9244 4.88 67.5564 5.076 67.9644 5.468C68.3804 5.86 68.5884 6.424 68.5884 7.16V11H67.5084L67.3764 10.22H67.3524C67.1204 10.508 66.8364 10.732 66.5004 10.892C66.1644 11.044 65.8004 11.12 65.4084 11.12ZM65.6484 9.944C65.8724 9.944 66.0764 9.908 66.2604 9.836C66.4524 9.764 66.6164 9.668 66.7524 9.548C66.8884 9.42 66.9964 9.272 67.0764 9.104C67.1564 8.928 67.1964 8.74 67.1964 8.54V8.396H66.0684C65.5884 8.396 65.2524 8.476 65.0604 8.636C64.8684 8.788 64.7724 8.996 64.7724 9.26C64.7724 9.46 64.8404 9.624 64.9764 9.752C65.1204 9.88 65.3444 9.944 65.6484 9.944Z" fill="#FD0A54"/>
<path opacity="0.3" d="M78.6 7.244H82.8V8.516H78.6V7.244Z" fill="#23192D"/>
<path d="M92.42 9.728L95.132 7.124C95.396 6.868 95.62 6.644 95.804 6.452C95.988 6.26 96.132 6.084 96.236 5.924C96.348 5.764 96.428 5.616 96.476 5.48C96.524 5.344 96.548 5.204 96.548 5.06C96.548 4.684 96.432 4.384 96.2 4.16C95.968 3.936 95.648 3.824 95.24 3.824C94.832 3.824 94.512 3.944 94.28 4.184C94.048 4.416 93.932 4.748 93.932 5.18H92.42C92.42 4.772 92.484 4.4 92.612 4.064C92.74 3.728 92.924 3.444 93.164 3.212C93.412 2.98 93.708 2.8 94.052 2.672C94.404 2.544 94.8 2.48 95.24 2.48C95.68 2.48 96.072 2.544 96.416 2.672C96.768 2.792 97.064 2.968 97.304 3.2C97.552 3.424 97.74 3.696 97.868 4.016C97.996 4.328 98.06 4.676 98.06 5.06C98.06 5.532 97.908 5.996 97.604 6.452C97.3 6.908 96.828 7.428 96.188 8.012L94.304 9.728H98.06V11H92.42V9.728ZM99.6177 9.728L102.33 7.124C102.594 6.868 102.818 6.644 103.002 6.452C103.186 6.26 103.33 6.084 103.434 5.924C103.546 5.764 103.626 5.616 103.674 5.48C103.722 5.344 103.746 5.204 103.746 5.06C103.746 4.684 103.63 4.384 103.398 4.16C103.166 3.936 102.846 3.824 102.438 3.824C102.03 3.824 101.71 3.944 101.478 4.184C101.246 4.416 101.13 4.748 101.13 5.18H99.6177C99.6177 4.772 99.6817 4.4 99.8097 4.064C99.9377 3.728 100.122 3.444 100.362 3.212C100.61 2.98 100.906 2.8 101.25 2.672C101.602 2.544 101.998 2.48 102.438 2.48C102.878 2.48 103.27 2.544 103.614 2.672C103.966 2.792 104.262 2.968 104.502 3.2C104.75 3.424 104.938 3.696 105.066 4.016C105.194 4.328 105.258 4.676 105.258 5.06C105.258 5.532 105.106 5.996 104.802 6.452C104.498 6.908 104.026 7.428 103.386 8.012L101.502 9.728H105.258V11H99.6177V9.728ZM108.195 11.12C107.915 11.12 107.683 11.028 107.499 10.844C107.323 10.66 107.235 10.432 107.235 10.16C107.235 9.888 107.323 9.66 107.499 9.476C107.683 9.292 107.915 9.2 108.195 9.2C108.475 9.2 108.703 9.292 108.879 9.476C109.063 9.66 109.155 9.888 109.155 10.16C109.155 10.432 109.063 10.66 108.879 10.844C108.703 11.028 108.475 11.12 108.195 11.12ZM114.013 11.12C113.653 11.12 113.325 11.068 113.029 10.964C112.741 10.86 112.489 10.716 112.273 10.532C112.057 10.34 111.877 10.116 111.733 9.86C111.589 9.604 111.489 9.324 111.433 9.02H112.909C112.997 9.228 113.133 9.408 113.317 9.56C113.501 9.704 113.753 9.776 114.073 9.776C114.305 9.776 114.517 9.736 114.709 9.656C114.901 9.576 115.065 9.448 115.201 9.272C115.345 9.096 115.457 8.864 115.537 8.576C115.617 8.288 115.665 7.932 115.681 7.508C115.225 7.988 114.649 8.228 113.953 8.228C113.089 8.228 112.413 7.984 111.925 7.496C111.437 7 111.193 6.312 111.193 5.432V5.288C111.193 4.872 111.261 4.492 111.397 4.148C111.533 3.804 111.725 3.508 111.973 3.26C112.229 3.012 112.533 2.82 112.885 2.684C113.245 2.548 113.641 2.48 114.073 2.48C114.529 2.48 114.941 2.556 115.309 2.708C115.677 2.852 115.993 3.076 116.257 3.38C116.521 3.676 116.721 4.056 116.857 4.52C117.001 4.976 117.073 5.512 117.073 6.128V6.752C117.073 7.544 117.001 8.22 116.857 8.78C116.713 9.332 116.505 9.784 116.233 10.136C115.969 10.48 115.649 10.732 115.273 10.892C114.897 11.044 114.477 11.12 114.013 11.12ZM112.705 5.432C112.705 5.888 112.829 6.244 113.077 6.5C113.333 6.756 113.665 6.884 114.073 6.884C114.545 6.884 114.909 6.756 115.165 6.5C115.429 6.244 115.561 5.888 115.561 5.432V5.288C115.561 4.832 115.429 4.476 115.165 4.22C114.909 3.956 114.545 3.824 114.073 3.824C113.665 3.824 113.333 3.956 113.077 4.22C112.829 4.476 112.705 4.832 112.705 5.288V5.432ZM118.51 7.964L122.014 2.6H123.91V7.964H124.87V9.236H123.91V11H122.47V9.236H118.51V7.964ZM122.47 7.964V4.196L120.058 7.964H122.47ZM130.095 5H132.159L133.431 8.264H133.455L134.727 5H136.695V11H135.303V6.62H135.279L134.091 9.68H132.699L131.511 6.62H131.487V11H130.095V5ZM138.263 5.456L139.943 3.92C140.143 3.744 140.303 3.592 140.423 3.464C140.543 3.328 140.635 3.212 140.699 3.116C140.771 3.012 140.815 2.92 140.831 2.84C140.855 2.752 140.867 2.664 140.867 2.576C140.867 2.376 140.807 2.22 140.687 2.108C140.567 1.996 140.387 1.94 140.147 1.94C139.899 1.94 139.715 1.996 139.595 2.108C139.483 2.22 139.427 2.38 139.427 2.588H138.263C138.263 2.108 138.427 1.712 138.755 1.4C139.083 1.088 139.547 0.931999 140.147 0.931999C140.739 0.931999 141.199 1.088 141.527 1.4C141.863 1.704 142.031 2.096 142.031 2.576C142.031 2.936 141.919 3.272 141.695 3.584C141.471 3.896 141.119 4.26 140.639 4.676L139.763 5.456H142.031V6.44H138.263V5.456Z" fill="#FD0A54"/>
<path opacity="0.4" d="M190.42 11.12C189.476 11.12 188.744 10.868 188.224 10.364C187.704 9.852 187.436 9.124 187.42 8.18H188.932C188.948 8.732 189.08 9.136 189.328 9.392C189.576 9.648 189.94 9.776 190.42 9.776C190.916 9.776 191.288 9.664 191.536 9.44C191.784 9.208 191.908 8.896 191.908 8.504C191.908 8.16 191.788 7.876 191.548 7.652C191.316 7.428 190.968 7.316 190.504 7.316H189.4V6.044H190.504C190.888 6.044 191.188 5.944 191.404 5.744C191.62 5.544 191.728 5.284 191.728 4.964C191.728 4.62 191.616 4.344 191.392 4.136C191.176 3.928 190.852 3.824 190.42 3.824C189.62 3.824 189.184 4.276 189.112 5.18H187.6C187.616 4.332 187.868 3.672 188.356 3.2C188.852 2.72 189.54 2.48 190.42 2.48C190.884 2.48 191.292 2.54 191.644 2.66C191.996 2.772 192.288 2.936 192.52 3.152C192.76 3.36 192.94 3.612 193.06 3.908C193.18 4.196 193.24 4.516 193.24 4.868C193.24 5.252 193.156 5.6 192.988 5.912C192.82 6.224 192.56 6.476 192.208 6.668C192.616 6.868 192.92 7.136 193.12 7.472C193.32 7.808 193.42 8.188 193.42 8.612C193.42 8.988 193.356 9.328 193.228 9.632C193.1 9.936 192.908 10.2 192.652 10.424C192.404 10.648 192.092 10.82 191.716 10.94C191.348 11.06 190.916 11.12 190.42 11.12ZM201.101 11.12C200.709 11.12 200.357 11.068 200.045 10.964C199.741 10.86 199.477 10.712 199.253 10.52C199.037 10.328 198.861 10.1 198.725 9.836C198.597 9.572 198.509 9.28 198.461 8.96H199.925C200.013 9.248 200.145 9.468 200.321 9.62C200.505 9.772 200.765 9.848 201.101 9.848C201.893 9.848 202.321 9.396 202.385 8.492H200.381V7.388H202.385C202.353 6.988 202.225 6.684 202.001 6.476C201.785 6.26 201.485 6.152 201.101 6.152C200.765 6.152 200.505 6.224 200.321 6.368C200.145 6.504 200.013 6.688 199.925 6.92H198.461C198.509 6.632 198.597 6.364 198.725 6.116C198.861 5.868 199.037 5.652 199.253 5.468C199.477 5.284 199.741 5.14 200.045 5.036C200.357 4.932 200.709 4.88 201.101 4.88C201.517 4.88 201.893 4.948 202.229 5.084C202.573 5.212 202.865 5.404 203.105 5.66C203.345 5.908 203.529 6.212 203.657 6.572C203.793 6.932 203.861 7.344 203.861 7.808V8.072C203.861 9.072 203.613 9.832 203.117 10.352C202.621 10.864 201.949 11.12 201.101 11.12ZM206.588 6.272H204.764V5H209.804V6.272H207.98V11H206.588V6.272ZM212.872 11.12C212.16 11.12 211.632 10.96 211.288 10.64C210.944 10.32 210.772 9.876 210.772 9.308C210.772 9.012 210.82 8.744 210.916 8.504C211.012 8.264 211.168 8.06 211.384 7.892C211.6 7.724 211.88 7.596 212.224 7.508C212.568 7.412 212.984 7.364 213.472 7.364H214.66V7.04C214.66 6.728 214.568 6.488 214.384 6.32C214.2 6.144 213.916 6.056 213.532 6.056C213.148 6.056 212.872 6.128 212.704 6.272C212.536 6.408 212.436 6.584 212.404 6.8H211.012C211.028 6.528 211.092 6.276 211.204 6.044C211.316 5.804 211.476 5.6 211.684 5.432C211.892 5.256 212.148 5.12 212.452 5.024C212.764 4.928 213.124 4.88 213.532 4.88C214.388 4.88 215.02 5.076 215.428 5.468C215.844 5.86 216.052 6.424 216.052 7.16V11H214.972L214.84 10.22H214.816C214.584 10.508 214.3 10.732 213.964 10.892C213.628 11.044 213.264 11.12 212.872 11.12ZM213.112 9.944C213.336 9.944 213.54 9.908 213.724 9.836C213.916 9.764 214.08 9.668 214.216 9.548C214.352 9.42 214.46 9.272 214.54 9.104C214.62 8.928 214.66 8.74 214.66 8.54V8.396H213.532C213.052 8.396 212.716 8.476 212.524 8.636C212.332 8.788 212.236 8.996 212.236 9.26C212.236 9.46 212.304 9.624 212.44 9.752C212.584 9.88 212.808 9.944 213.112 9.944ZM219.223 7.856L217.555 5H219.091L220.339 7.244H220.939V5H222.331V7.244H222.931L224.203 5H225.715L224.035 7.808L225.835 11H224.251L222.931 8.516H222.331V11H220.939V8.516H220.339L218.995 11H217.435L219.223 7.856Z" fill="#23192D"/>
</svg>
